HIERARCHY
ROOT Hips
{
    OFFSET 0.000000 0.000000 0.000000
    CHANNELS 6 Xposition Yposition Zposition Zrotation Xrotation Yrotation
    JOINT Spine
    {
        OFFSET -0.000000 7.236184 0.000000
        CHANNELS 3 Zrotation Xrotation Yrotation
        JOINT Spine1
        {
            OFFSET -0.000000 20.420147 0.000000
            CHANNELS 3 Zrotation Xrotation Yrotation
            JOINT Neck
            {
                OFFSET -0.000000 20.336288 1.848754
                CHANNELS 3 Zrotation Xrotation Yrotation
                JOINT Head
                {
                    OFFSET -0.000000 12.354461 -1.764923
                    CHANNELS 3 Zrotation Xrotation Yrotation
                    End Site
                    {
                        OFFSET -0.000000 22.061537 0.000000
                    }
                }
            }
            JOINT LeftShoulder
            {
                OFFSET 3.573296 18.396038 -0.314103
                CHANNELS 3 Zrotation Xrotation Yrotation
                JOINT LeftArm
                {
                    OFFSET 10.880760 0.000000 0.000000
                    CHANNELS 3 Zrotation Xrotation Yrotation
                    JOINT LeftForeArm
                    {
                        OFFSET 27.185530 0.000000 0.000000
                        CHANNELS 3 Zrotation Xrotation Yrotation
                        JOINT LeftHand
                        {
                            OFFSET 27.825975 0.000000 0.000000
                            CHANNELS 3 Zrotation Xrotation Yrotation
                            End Site
                            {
                                OFFSET 13.236923 0.000000 0.000000
                            }
                        }
                    }
                }
            }
            JOINT RightShoulder
            {
                OFFSET -3.474926 18.396038 -0.314103
                CHANNELS 3 Zrotation Xrotation Yrotation
                JOINT RightArm
                {
                    OFFSET -10.880760 0.000000 0.000000
                    CHANNELS 3 Zrotation Xrotation Yrotation
                    JOINT RightForeArm
                    {
                        OFFSET -27.185530 0.000000 0.000000
                        CHANNELS 3 Zrotation Xrotation Yrotation
                        JOINT RightHand
                        {
                            OFFSET -27.825975 0.000000 0.000000
                            CHANNELS 3 Zrotation Xrotation Yrotation
                            End Site
                            {
                                OFFSET -13.236923 0.000000 0.000000
                            }
                        }
                    }
                }
            }
        }
    }
    JOINT LeftUpLeg
    {
        OFFSET 8.824615 0.000000 0.000000
        CHANNELS 3 Zrotation Xrotation Yrotation
        JOINT LeftLeg
        {
            OFFSET -0.000000 -35.111282 0.000000
            CHANNELS 3 Zrotation Xrotation Yrotation
            JOINT LeftFoot
            {
                OFFSET -0.000000 -42.324711 0.000000
                CHANNELS 3 Zrotation Xrotation Yrotation
                JOINT LeftToeBase
                {
                    OFFSET -0.000000 -5.735999 13.236923
                    CHANNELS 3 Zrotation Xrotation Yrotation
                    End Site
                    {
                        OFFSET -0.000000 0.000000 3.529846
                    }
                }
            }
        }
    }
    JOINT RightUpLeg
    {
        OFFSET -8.824615 0.000000 0.000000
        CHANNELS 3 Zrotation Xrotation Yrotation
        JOINT RightLeg
        {
            OFFSET -0.000000 -35.111282 0.000000
            CHANNELS 3 Zrotation Xrotation Yrotation
            JOINT RightFoot
            {
                OFFSET -0.000000 -42.324711 0.000000
                CHANNELS 3 Zrotation Xrotation Yrotation
                JOINT RightToeBase
                {
                    OFFSET -0.000000 -5.735999 13.236923
                    CHANNELS 3 Zrotation Xrotation Yrotation
                    End Site
                    {
                        OFFSET -0.000000 0.000000 3.529846
                    }
                }
            }
        }
    }
}
MOTION
Frames:    8
Frame Time:    0.008333
-1.437831    77.157616    110.455559    6.930620    -17.504612    -171.032242    -0.631820    -4.254779    1.632388    3.985395    1.913876    1.589256    3.448753    13.808187    -8.526837    13.173582    -10.453452    -5.909908    1.549657    11.735816    -0.710545    -45.411469    27.944479    -33.540089    6.338260    -1.188386    -17.929798    21.742338    -0.588035    -2.086180    7.513503    17.723646    -9.504228    52.487144    30.070017    22.323626    -18.574265    -6.398264    43.285110    -12.493729    1.753760    -6.565688    13.717368    -45.690052    5.918147    3.198289    48.314384    3.840188    -11.567970    -15.024498    -19.166342    1.684337    -0.901066    -1.870055    -32.308624    -28.595833    -3.995058    177.041870    66.207664    -161.946701    10.905741    -2.862427    -14.860389    -2.009588    -21.308170    2.254091
-1.525152    77.092575    110.518967    7.015593    -17.512209    -170.967606    -0.654386    -4.321755    1.613753    3.903799    2.017352    1.569684    3.408636    13.802793    -8.542746    13.268721    -10.394091    -5.910322    1.592898    11.632795    -0.860953    -45.263088    27.566929    -33.907982    6.416366    -1.229476    -18.088793    21.754969    -0.647047    -2.290248    7.591497    17.694275    -9.502490    52.411060    30.032064    22.300400    -18.615467    -6.377295    43.317226    -12.771778    1.809120    -6.522690    13.699886    -45.905148    5.998125    3.383906    48.546745    3.628170    -11.538305    -15.067706    -19.178133    1.720522    -0.940802    -1.910367    -32.566368    -28.467123    -3.706542    177.505997    62.056435    -161.413483    10.608006    -3.490864    -15.168002    -2.303888    -20.400927    2.579181
-1.607027    77.045944    110.578629    7.079804    -17.531914    -170.966507    -0.680868    -4.388499    1.603219    3.815421    2.102314    1.559289    3.371355    13.786792    -8.535140    13.331305    -10.320178    -5.895819    1.629153    11.540308    -0.989342    -45.145279    27.195580    -34.250797    6.463194    -1.264812    -18.231178    21.701620    -0.704530    -2.492938    7.666072    17.668760    -9.501957    52.337456    30.002056    22.279221    -18.640373    -6.362513    43.346115    -13.052425    1.850544    -6.476090    13.693585    -46.072556    6.041736    3.494108    48.722462    3.526413    -11.517981    -15.101923    -19.170034    1.746077    -0.979632    -1.938879    -32.794292    -28.361469    -3.425762    177.831223    58.269333    -160.778168    10.303860    -4.091957    -15.557918    -2.583037    -19.330971    2.885234
-1.684741    77.019310    110.634445    7.119665    -17.561579    -171.031738    -0.713541    -4.450656    1.599234    3.723248    2.168494    1.556483    3.335542    13.757699    -8.502118    13.358352    -10.234312    -5.864839    1.658109    11.458846    -1.094983    -45.058788    26.837492    -34.565613    6.482201    -1.297685    -18.358477    21.597546    -0.762947    -2.693740    7.733088    17.645098    -9.502020    52.266083    29.986431    22.259903    -18.649488    -6.358491    43.373821    -13.330853    1.874013    -6.428127    13.694540    -46.186554    6.051244    3.529853    48.837685    3.534662    -11.508581    -15.126744    -19.144268    1.757879    -1.016300    -1.952115    -32.995365    -28.291637    -3.168705    178.060532    54.907677    -160.113831    9.990462    -4.644632    -16.007221    -2.842926    -18.174082    3.168077
-1.758746    77.013954    110.685753    7.133461    -17.598957    -171.162537    -0.752463    -4.504864    1.599590    3.630330    2.215895    1.559006    3.301741    13.715362    -8.442744    13.346922    -10.141603    -5.816442    1.679796    11.389867    -1.177818    -45.003319    26.503403    -34.847988    6.479128    -1.330395    -18.471216    21.460443    -0.823079    -2.887645    7.789761    17.621590    -9.501288    52.196980    29.988527    22.241241    -18.643480    -6.367696    43.402802    -13.600696    1.877451    -6.380916    13.700443    -46.242962    6.031504    3.495514    48.889244    3.646695    -11.509066    -15.141746    -19.103050    1.754341    -1.049871    -1.948305    -33.170570    -28.268826    -2.955312    178.213654    52.052906    -159.479843    9.671288    -5.128744    -16.479309    -3.072265    -17.023436    3.415881
-1.830227    77.030327    110.732651    7.121760    -17.642612    -171.356232    -0.797011    -4.549796    1.601695    3.538923    2.245880    1.564013    3.269570    13.659350    -8.356524    13.296535    -10.045216    -5.749749    1.695280    11.333945    -1.239644    -44.976929    26.199568    -35.099171    6.460981    -1.364701    -18.570148    21.304996    -0.885382    -3.072837    7.834259    17.596794    -9.498357    52.129292    30.009596    22.222425    -18.623404    -6.391018    43.435543    -13.859744    1.861100    -6.335362    13.710241    -46.241573    5.988748    3.398310    48.877193    3.853180    -11.516700    -15.146366    -19.048576    1.736043    -1.081011    -1.928096    -33.322811    -28.301113    -2.803681    178.304489    49.736229    -158.920258    9.350161    -5.537236    -16.935068    -3.258628    -15.958315    3.615681
-1.899967    77.068855    110.774956    7.086908    -17.690611    -171.609421    -0.845356    -4.584727    1.602928    3.451720    2.260483    1.568689    3.239308    13.589287    -8.243070    13.206583    -9.947545    -5.664137    1.705115    11.291193    -1.282395    -44.976582    25.932739    -35.321060    6.434802    -1.402153    -18.655886    21.141338    -0.950245    -3.247489    7.865835    17.569571    -9.492480    52.061676    30.048763    22.202574    -18.590101    -6.427912    43.474854    -14.106299    1.826353    -6.292015    13.725449    -46.181847    5.929620    3.244972    48.801201    4.144118    -11.527692    -15.140079    -18.982262    1.705396    -1.110342    -1.894161    -33.452137    -28.393862    -2.730041    178.339783    47.986210    -158.471100    9.035317    -5.867994    -17.334166    -3.387225    -15.052379    3.751983
-1.967919    77.129356    110.812187    7.032737    -17.740570    -171.915863    -0.894641    -4.608997    1.600824    3.371869    2.261545    1.570285    3.212329    13.505937    -8.103093    13.077321    -9.850489    -5.560022    1.710125    11.262035    -1.308422    -44.999535    25.709686    -35.514881    6.406782    -1.443468    -18.727634    20.977341    -1.017285    -3.409300    7.884134    17.539074    -9.482567    51.993877    30.102818    22.180580    -18.544142    -6.476064    43.522251    -14.337709    1.775738    -6.251368    13.748884    -46.064495    5.861336    3.043697    48.662540    4.506078    -11.539192    -15.122992    -18.906002    1.666408    -1.135159    -1.850944    -33.556465    -28.548794    -2.745926    178.321503    46.832905    -158.159348    8.738308    -6.120025    -17.639120    -3.443890    -14.372173    3.809974
